<?xml version="1.0" standalone="no"?>
<!DOCTYPE svg PUBLIC "-//W3C//DTD SVG 20010904//EN"
 "http://www.w3.org/TR/2001/REC-SVG-20010904/DTD/svg10.dtd">
<svg version="1.0" xmlns="http://www.w3.org/2000/svg"
 width="512.000000pt" height="512.000000pt" viewBox="0 0 512.000000 512.000000"
 preserveAspectRatio="xMidYMid meet">
<metadata>
Created by potrace 1.11, written by Peter Selinger 2001-2013
</metadata>
<g transform="translate(0.000000,512.000000) scale(0.100000,-0.100000)"
fill="#000000" stroke="none">
<path d="M553 3120 c-189 -55 -336 -197 -397 -384 -21 -62 -26 -99 -26 -175 0
-165 46 -284 157 -401 116 -123 247 -180 415 -180 115 0 182 16 280 67 218
113 343 377 294 618 -21 105 -71 206 -140 282 -54 59 -147 126 -211 151 -112
45 -263 53 -372 22z m300 -218 l27 -28 -2 -313 -3 -313 -150 -87 c-136 -80
-152 -87 -177 -77 l-28 10 0 347 0 347 118 70 c136 82 172 89 215 44z"/>
<path d="M679 2837 c-47 -29 -94 -58 -103 -66 -14 -12 -16 -47 -16 -307 0
-213 3 -294 11 -294 7 0 63 30 125 66 l114 66 0 294 0 294 -22 0 c-13 -1 -62
-24 -109 -53z m40 -304 c1 -131 -1 -145 -19 -163 -12 -12 -25 -18 -30 -15 -6
4 -10 76 -10 171 0 157 1 165 22 186 l23 23 6 -30 c4 -17 7 -94 8 -172z"/>
<path d="M838 2574 l-3 -286 -135 -79 c-128 -74 -160 -99 -127 -99 18 0 268
146 279 162 12 19 10 576 -2 583 -6 4 -11 -96 -12 -281z"/>
<path d="M1840 3130 c-14 -4 -49 -15 -79 -25 -186 -57 -341 -243 -379 -455
-14 -83 -14 -97 1 -182 41 -233 197 -409 419 -472 81 -23 233 -21 317 4 86 25
172 77 242 146 281 276 210 744 -141 928 -36 19 -93 41 -126 50 -65 17 -211
20 -254 6z m430 -565 l0 -305 -310 0 -310 0 0 305 0 305 310 0 310 0 0 -305z"/>
<path d="M1672 2638 c2 -226 6 -205 10 55 2 86 0 157 -4 157 -5 0 -7 -96 -6
-212z"/>
<path d="M2230 2841 c0 -5 5 -13 10 -16 6 -3 10 -2 10 4 0 5 -4 13 -10 16 -5
3 -10 2 -10 -4z"/>
<path d="M1707 2814 c-4 -4 -7 -119 -7 -255 l0 -248 144 -3 c79 -2 196 -2 260
0 l116 3 -2 252 -3 252 -251 3 c-138 1 -253 -1 -257 -4z m450 -246 c1 -117 -2
-180 -9 -184 -20 -13 -371 -5 -380 9 -10 15 -11 341 -1 351 4 3 93 5 197 4
l191 -3 2 -177z"/>
<path d="M1787 2723 c-10 -9 -9 -311 1 -317 4 -2 6 56 4 130 -3 73 -1 145 2
159 l7 26 164 -3 c91 -2 165 0 165 5 0 9 -334 10 -343 0z"/>
<path d="M1820 2565 l0 -135 140 0 141 0 -3 133 -3 132 -137 3 -138 3 0 -136z"/>
<path d="M1672 2338 c-2 -48 1 -58 14 -58 12 0 14 3 6 13 -6 7 -12 33 -15 57
-3 42 -4 41 -5 -12z"/>
<path d="M2241 2303 c-1 -7 -9 -13 -18 -13 -13 0 -14 -3 -5 -12 15 -15 37 3
29 24 -4 9 -6 10 -6 1z"/>
<path d="M1978 2283 c7 -3 16 -2 19 1 4 3 -2 6 -13 5 -11 0 -14 -3 -6 -6z"/>
<path d="M3029 3121 c-207 -60 -361 -219 -414 -424 -47 -183 8 -392 141 -536
114 -123 248 -181 416 -181 116 0 181 16 283 69 128 66 227 187 277 338 27 81
31 238 9 318 -57 203 -223 367 -427 419 -78 20 -211 19 -285 -3z m315 -166
c12 -18 16 -49 16 -123 l0 -98 -50 -29 -50 -29 -2 -255 -3 -255 -75 -47 c-71
-44 -76 -46 -102 -33 l-28 15 0 225 0 225 -28 -17 c-27 -15 -31 -15 -56 1 -26
18 -27 19 -24 118 l3 101 185 112 c102 62 188 112 191 113 4 1 14 -10 23 -24z"/>
<path d="M3320 2847 l0 -73 -50 -29 -50 -29 0 -253 0 -254 -65 -40 c-61 -39
-80 -59 -54 -59 14 0 116 58 124 70 3 4 5 118 5 254 1 269 -1 260 63 293 18 9
35 21 39 27 12 17 10 166 -2 166 -6 0 -10 -31 -10 -73z"/>
<path d="M3130 2821 l-145 -87 -3 -62 c-2 -34 0 -62 3 -62 3 0 26 13 53 30
l47 29 3 -249 c1 -159 6 -250 12 -250 6 0 28 11 50 25 l40 25 0 254 0 253 50
31 50 31 0 61 c0 33 -3 60 -7 59 -5 0 -73 -40 -153 -88z"/>
<path d="M3013 2597 c-30 -20 -44 -47 -24 -47 14 0 75 45 74 55 -2 17 -17 14
-50 -8z"/>
<path d="M4265 3120 c-87 -25 -109 -35 -174 -79 -156 -106 -260 -299 -261
-484 0 -122 54 -269 139 -373 145 -179 407 -252 627 -176 344 120 495 503 326
827 -97 185 -304 307 -518 304 -44 -1 -106 -9 -139 -19z m445 -385 l0 -94 -62
-34 c-35 -19 -112 -60 -173 -92 -60 -31 -114 -61 -119 -66 -6 -5 64 -9 172 -9
l182 0 0 -75 0 -75 -275 0 -275 0 0 98 0 98 93 48 c183 97 242 129 252 137 5
5 -67 9 -167 9 l-176 0 -4 71 c-2 39 -1 73 1 75 2 2 127 4 278 4 l273 0 0 -95z"/>
<path d="M4180 2799 c0 -5 5 -7 10 -4 6 3 10 8 10 11 0 2 -4 4 -10 4 -5 0 -10
-5 -10 -11z"/>
<path d="M4687 2747 c6 -93 11 -101 12 -20 0 39 -3 74 -7 77 -5 3 -7 -23 -5
-57z"/>
<path d="M4202 2778 c-7 -7 -12 -17 -12 -23 0 -25 41 -34 162 -34 68 1 140 -2
161 -6 25 -5 37 -4 37 4 0 20 47 12 53 -9 7 -29 -8 -42 -118 -100 -166 -87
-270 -143 -275 -147 -2 -2 -7 -29 -10 -59 -5 -44 -3 -57 9 -63 9 -5 113 -9
233 -10 206 -2 216 -2 222 17 4 10 4 27 0 36 -5 14 -30 16 -205 16 l-199 0 0
24 c0 21 19 34 138 97 187 98 245 130 256 139 7 7 10 62 7 118 -1 17 -441 18
-459 0z"/>
<path d="M4180 2709 c0 -5 5 -7 10 -4 6 3 10 8 10 11 0 2 -4 4 -10 4 -5 0 -10
-5 -10 -11z"/>
<path d="M4560 2695 c0 -8 5 -15 10 -15 6 0 10 7 10 15 0 8 -4 15 -10 15 -5 0
-10 -7 -10 -15z"/>
<path d="M4282 2429 c2 -6 8 -10 13 -10 5 0 11 4 13 10 2 6 -4 11 -13 11 -9 0
-15 -5 -13 -11z"/>
<path d="M4685 2365 c0 -29 3 -51 8 -48 4 2 7 24 7 48 0 24 -3 46 -7 48 -5 3
-8 -19 -8 -48z"/>
<path d="M4180 2320 c0 -5 5 -10 11 -10 5 0 7 5 4 10 -3 6 -8 10 -11 10 -2 0
-4 -4 -4 -10z"/>
</g>
</svg>
